<svg id="Layer_1" data-name="Layer 1" xmlns="http://www.w3.org/2000/svg" viewBox="0 0 232 232"><defs><style>.cls-1{fill:#0aa7b7;}</style></defs><g id="Layer_4" data-name="Layer 4"><path class="cls-1" d="M58,39V193H174V39ZM87.1,55.9c3.1,0,5.6,3.2,5.6,7.1,0,3.7-2.4,9.1-5.6,9.1s-5.6-5.5-5.6-9.1C81.5,59.1,84,55.9,87.1,55.9Zm-7.7,20c1.9-1.2,4.6-1.3,7.4-1.3,5,0,11.2,0,11.2,9.4,0,3.5-.9,5.1-2.8,5.1a12.66,12.66,0,0,1-3.4-.8,17.84,17.84,0,0,0-5.2-1.1,13.69,13.69,0,0,0-5.1,1.3,9.92,9.92,0,0,1-2.8.9,2,2,0,0,1-1.8-1.3,9.52,9.52,0,0,1-.6-4C76.3,79.9,77.3,77.2,79.4,75.9Zm79.9,73.6H75.5v-6.8h83.8Zm0-22.9H75.5v-6.5h83.8Zm0-20.9H75.5V98.9h83.8Zm0-20.2h-50V79h50Zm0-21.2h-50V58.8h50Z"/><path class="cls-1" d="M116,0A116,116,0,1,0,232,116,116,116,0,0,0,116,0Zm0,222.2A106.2,106.2,0,1,1,222.2,116,106.14,106.14,0,0,1,116,222.2Z"/></g></svg>