<svg id="Layer_1" data-name="Layer 1" xmlns="http://www.w3.org/2000/svg" xmlns:xlink="http://www.w3.org/1999/xlink" viewBox="0 0 151 146"><defs><style>.cls-1{fill:url(#linear-gradient);}</style><linearGradient id="linear-gradient" x1="111.76" y1="172.87" x2="116.76" y2="45.87" gradientTransform="matrix(1, 0, 0, -1, 0, 234)" gradientUnits="userSpaceOnUse"><stop offset="0" stop-color="#2693b1"/><stop offset="0.05" stop-color="#2196b2"/><stop offset="0.33" stop-color="#0aa7b7"/><stop offset="0.51" stop-color="#02adb9"/><stop offset="0.64" stop-color="#02abb6"/><stop offset="0.72" stop-color="#02a3ae"/><stop offset="0.79" stop-color="#0295a0"/><stop offset="0.85" stop-color="#01828b"/><stop offset="0.9" stop-color="#016971"/><stop offset="0.95" stop-color="#014a51"/><stop offset="1" stop-color="#00272b"/><stop offset="1" stop-color="#00262a"/></linearGradient></defs><g id="Layer_1-2" data-name="Layer 1"><path class="cls-1" d="M150.2,79a33.39,33.39,0,0,0-30.7-35.9h-.1a28.1,28.1,0,0,0-2.9-.1A33.4,33.4,0,0,0,82.7,76a27.15,27.15,0,0,0,.1,2.9,61.07,61.07,0,0,0,12.8,41.6,1.1,1.1,0,0,1,0,.8,13.4,13.4,0,0,1,0,8.4,2.94,2.94,0,0,1-1.5,1.6L89.4,133c-21.8,8-37.5,13.9-42.3,23.7a67.79,67.79,0,0,0-6,27.3,5,5,0,0,0,5,5h141a5,5,0,0,0,5-5,69.35,69.35,0,0,0-6.6-27.3c-4.8-10.1-20.1-15.6-42.3-23.7l-4.7-1.7a2.94,2.94,0,0,1-1.5-1.6,14,14,0,0,1,0-8.1,2.62,2.62,0,0,1,.5-.9A62.46,62.46,0,0,0,150.2,79Z" transform="translate(-41.1 -43)"/></g></svg>