<svg id="Layer_1" data-name="Layer 1" xmlns="http://www.w3.org/2000/svg" viewBox="0 0 232 232"><defs><style>.cls-1{fill:#0aa7b7;}</style></defs><g id="Layer_1-2" data-name="Layer 1"><path class="cls-1" d="M116,0A116,116,0,1,0,232,116,116,116,0,0,0,116,0Zm0,222.2A106.2,106.2,0,1,1,222.2,116,106.14,106.14,0,0,1,116,222.2Z"/><path class="cls-1" d="M150.2,79a33.39,33.39,0,0,0-30.7-35.9h-.1a28.1,28.1,0,0,0-2.9-.1A33.4,33.4,0,0,0,82.7,76a27.15,27.15,0,0,0,.1,2.9,61.07,61.07,0,0,0,12.8,41.6,1.1,1.1,0,0,1,0,.8,13.4,13.4,0,0,1,0,8.4,2.94,2.94,0,0,1-1.5,1.6L89.4,133c-21.8,8-37.5,13.9-42.3,23.7a67.79,67.79,0,0,0-6,27.3,5,5,0,0,0,5,5h141a5,5,0,0,0,5-5,69.35,69.35,0,0,0-6.6-27.3c-4.8-10.1-20.1-15.6-42.3-23.7l-4.7-1.7a2.94,2.94,0,0,1-1.5-1.6,14,14,0,0,1,0-8.1,2.62,2.62,0,0,1,.5-.9A62.46,62.46,0,0,0,150.2,79Z"/></g></svg>