<svg id="Layer_1" data-name="Layer 1" xmlns="http://www.w3.org/2000/svg" viewBox="0 0 232 232"><defs><style>.cls-1{fill:#0aa7b7;}</style></defs><g id="Layer_2" data-name="Layer 2"><path class="cls-1" d="M145.1,148.9l-29.6-11h.7a5.8,5.8,0,0,0,5.8-5.8v-4.2L149.1,138a5.91,5.91,0,0,1,3.8,5.4,4.48,4.48,0,0,1-.4,2A5.71,5.71,0,0,1,145.1,148.9Z" transform="translate(0 0.5)"/><path class="cls-1" d="M118.4,130.3a5.5,5.5,0,0,0-3.2-3.3,6.06,6.06,0,0,1,4.2-.1l2.7,1v4.2a5.8,5.8,0,0,1-5.8,5.8h-.7l-.3-.1c-.1,0-.1,0-.1-.1a5.87,5.87,0,0,0,3.6-5.4A5.09,5.09,0,0,0,118.4,130.3Z" transform="translate(0 0.5)"/><path class="cls-1" d="M118.4,130.3a5.09,5.09,0,0,1,.4,2,5.87,5.87,0,0,1-3.6,5.4,5.87,5.87,0,0,1-3.6-5.4,4.48,4.48,0,0,1,.4-2,5.4,5.4,0,0,1,3.3-3.3A5.93,5.93,0,0,1,118.4,130.3Z" transform="translate(0 0.5)"/><path class="cls-1" d="M115,137.8,85.2,148.9a5.74,5.74,0,0,1-7.4-3.4,7.11,7.11,0,0,1-.4-2,5.58,5.58,0,0,1,3.8-5.4l29.3-10.9v5a5.66,5.66,0,0,0,1.7,4.1A6.3,6.3,0,0,0,115,137.8Z" transform="translate(0 0.5)"/><path class="cls-1" d="M110.4,132.1v-5l.5-.2a5.54,5.54,0,0,1,4.2.1,5.66,5.66,0,0,0-3.3,3.3,5.09,5.09,0,0,0-.4,2,5.87,5.87,0,0,0,3.6,5.4c-.1,0-.1.1-.2.1h0a5,5,0,0,1-2.8-1.6A6.3,6.3,0,0,1,110.4,132.1Z" transform="translate(0 0.5)"/><path class="cls-1" d="M110.4,127.1V100.3a5.8,5.8,0,0,1,5.8-5.8,5.66,5.66,0,0,1,4.1,1.7,5.9,5.9,0,0,1,1.7,4.1v27.6l-2.7-1a5.54,5.54,0,0,0-4.2.1,6.06,6.06,0,0,0-4.2-.1Z" transform="translate(0 0.5)"/><path class="cls-1" d="M91.6,93V68.4c0-9.5,10.6-12.2,16.9-12.9h0a9.31,9.31,0,0,0,7.7,4.2v.1l-5.7,21.8,5.7,6.5,5.7-6.5-5.7-21.8v-.1a9.31,9.31,0,0,0,7.7-4.2h0c6.3.8,16.9,3.4,16.9,12.9V93s-1.6,13.5-24.6,13.5S91.6,93,91.6,93Z" transform="translate(0 0.5)"/><path class="cls-1" d="M129.3,41.2a13,13,0,1,1-13-13A13,13,0,0,1,129.3,41.2Z" transform="translate(0 0.5)"/><path class="cls-1" d="M170.9,130.9a13,13,0,1,1,13-13A13,13,0,0,1,170.9,130.9Z" transform="translate(0 0.5)"/><path class="cls-1" d="M170.9,183.2c-23,0-24.6-13.5-24.6-13.5V145.1c0-9.5,10.6-12.2,16.9-12.9a9.31,9.31,0,0,0,7.7,4.2v.1l-5.7,21.8,5.7,6.5,5.7-6.5-5.7-21.8v-.1a9.15,9.15,0,0,0,7.7-4.2c6.3.8,16.9,3.4,16.9,12.9v24.6S194,183.2,170.9,183.2Z" transform="translate(0 0.5)"/><path class="cls-1" d="M37.4,146.7c0-9.5,10.6-12.2,16.9-12.9h0A9.15,9.15,0,0,0,62,138v.1l-5.7,21.8,5.7,6.5,5.7-6.5L62,138.1V138a9.15,9.15,0,0,0,7.7-4.2h0c6.3.8,16.9,3.4,16.9,12.9v24.6S85,184.8,62,184.8s-24.6-13.5-24.6-13.5Z" transform="translate(0 0.5)"/><path class="cls-1" d="M49,119.5a13,13,0,1,1,13,13A13,13,0,0,1,49,119.5Z" transform="translate(0 0.5)"/><path class="cls-1" d="M116-.5a116,116,0,1,0,116,116A116,116,0,0,0,116-.5Zm0,222.3A106.2,106.2,0,0,1,9.8,115.6C9.8,57,57.3,9.2,116,9.2A106.2,106.2,0,0,1,222.2,115.4C222.2,174,174.7,221.8,116,221.8Z" transform="translate(0 0.5)"/></g></svg>