<svg id="Layer_1" data-name="Layer 1" xmlns="http://www.w3.org/2000/svg" xmlns:xlink="http://www.w3.org/1999/xlink" viewBox="0 0 158.1 156.6"><defs><style>.cls-1{fill:url(#linear-gradient);}.cls-2{fill:url(#linear-gradient-2);}.cls-3{fill:url(#linear-gradient-3);}.cls-4{fill:url(#linear-gradient-4);}.cls-5{fill:url(#linear-gradient-5);}.cls-6{fill:url(#linear-gradient-6);}.cls-7{fill:url(#linear-gradient-7);}.cls-8{fill:url(#linear-gradient-8);}.cls-9{fill:url(#linear-gradient-9);}.cls-10{fill:url(#linear-gradient-10);}.cls-11{fill:url(#linear-gradient-11);}.cls-12{fill:url(#linear-gradient-12);}</style><linearGradient id="linear-gradient" x1="133.53" y1="215.64" x2="134.53" y2="32.64" gradientTransform="matrix(1, 0, 0, -1, 0, 234)" gradientUnits="userSpaceOnUse"><stop offset="0" stop-color="#2693b1"/><stop offset="0.05" stop-color="#2196b2"/><stop offset="0.33" stop-color="#0aa7b7"/><stop offset="0.51" stop-color="#02adb9"/><stop offset="0.64" stop-color="#02abb6"/><stop offset="0.72" stop-color="#02a3ae"/><stop offset="0.79" stop-color="#0295a0"/><stop offset="0.85" stop-color="#01828b"/><stop offset="0.9" stop-color="#016971"/><stop offset="0.95" stop-color="#014a51"/><stop offset="1" stop-color="#00272b"/><stop offset="1" stop-color="#00262a"/></linearGradient><linearGradient id="linear-gradient-2" x1="118.03" y1="215.56" x2="119.03" y2="32.56" xlink:href="#linear-gradient"/><linearGradient id="linear-gradient-3" x1="114.58" y1="215.54" x2="115.58" y2="32.54" xlink:href="#linear-gradient"/><linearGradient id="linear-gradient-4" x1="95.53" y1="215.43" x2="96.53" y2="32.43" xlink:href="#linear-gradient"/><linearGradient id="linear-gradient-5" x1="112.14" y1="215.52" x2="113.14" y2="32.52" xlink:href="#linear-gradient"/><linearGradient id="linear-gradient-6" x1="115.68" y1="215.54" x2="116.68" y2="32.54" xlink:href="#linear-gradient"/><linearGradient id="linear-gradient-7" x1="115.86" y1="215.55" x2="116.86" y2="32.55" xlink:href="#linear-gradient"/><linearGradient id="linear-gradient-8" x1="116.18" y1="215.55" x2="117.18" y2="32.55" xlink:href="#linear-gradient"/><linearGradient id="linear-gradient-9" x1="170.36" y1="215.84" x2="171.36" y2="32.84" xlink:href="#linear-gradient"/><linearGradient id="linear-gradient-10" x1="170.14" y1="215.84" x2="171.14" y2="32.84" xlink:href="#linear-gradient"/><linearGradient id="linear-gradient-11" x1="61.23" y1="215.25" x2="62.23" y2="32.25" xlink:href="#linear-gradient"/><linearGradient id="linear-gradient-12" x1="61.45" y1="215.25" x2="62.45" y2="32.25" xlink:href="#linear-gradient"/></defs><g id="Layer_2" data-name="Layer 2"><path class="cls-1" d="M145.1,148.9l-29.6-11h.7a5.8,5.8,0,0,0,5.8-5.8v-4.2L149.1,138a5.91,5.91,0,0,1,3.8,5.4,4.48,4.48,0,0,1-.4,2A5.71,5.71,0,0,1,145.1,148.9Z" transform="translate(-37.4 -28.2)"/><path class="cls-2" d="M118.4,130.3a5.5,5.5,0,0,0-3.2-3.3,6.06,6.06,0,0,1,4.2-.1l2.7,1v4.2a5.8,5.8,0,0,1-5.8,5.8h-.7l-.3-.1c-.1,0-.1,0-.1-.1a5.87,5.87,0,0,0,3.6-5.4A5.09,5.09,0,0,0,118.4,130.3Z" transform="translate(-37.4 -28.2)"/><path class="cls-3" d="M118.4,130.3a5.09,5.09,0,0,1,.4,2,5.87,5.87,0,0,1-3.6,5.4,5.87,5.87,0,0,1-3.6-5.4,4.48,4.48,0,0,1,.4-2,5.4,5.4,0,0,1,3.3-3.3A5.93,5.93,0,0,1,118.4,130.3Z" transform="translate(-37.4 -28.2)"/><path class="cls-4" d="M115,137.8,85.2,148.9a5.74,5.74,0,0,1-7.4-3.4,7.11,7.11,0,0,1-.4-2,5.58,5.58,0,0,1,3.8-5.4l29.3-10.9v5a5.66,5.66,0,0,0,1.7,4.1A6.3,6.3,0,0,0,115,137.8Z" transform="translate(-37.4 -28.2)"/><path class="cls-5" d="M110.4,132.1v-5l.5-.2a5.54,5.54,0,0,1,4.2.1,5.66,5.66,0,0,0-3.3,3.3,5.09,5.09,0,0,0-.4,2,5.87,5.87,0,0,0,3.6,5.4c-.1,0-.1.1-.2.1h0a5,5,0,0,1-2.8-1.6A6.3,6.3,0,0,1,110.4,132.1Z" transform="translate(-37.4 -28.2)"/><path class="cls-6" d="M110.4,127.1V100.3a5.8,5.8,0,0,1,5.8-5.8,5.66,5.66,0,0,1,4.1,1.7,5.9,5.9,0,0,1,1.7,4.1v27.6l-2.7-1a5.54,5.54,0,0,0-4.2.1,6.06,6.06,0,0,0-4.2-.1Z" transform="translate(-37.4 -28.2)"/><path class="cls-7" d="M91.6,93V68.4c0-9.5,10.6-12.2,16.9-12.9h0a9.31,9.31,0,0,0,7.7,4.2v.1l-5.7,21.8,5.7,6.5,5.7-6.5-5.7-21.8v-.1a9.31,9.31,0,0,0,7.7-4.2h0c6.3.8,16.9,3.4,16.9,12.9V93s-1.6,13.5-24.6,13.5S91.6,93,91.6,93Z" transform="translate(-37.4 -28.2)"/><path class="cls-8" d="M129.3,41.2a13,13,0,1,1-13-13A13,13,0,0,1,129.3,41.2Z" transform="translate(-37.4 -28.2)"/><path class="cls-9" d="M170.9,130.9a13,13,0,1,1,13-13A13,13,0,0,1,170.9,130.9Z" transform="translate(-37.4 -28.2)"/><path class="cls-10" d="M170.9,183.2c-23,0-24.6-13.5-24.6-13.5V145.1c0-9.5,10.6-12.2,16.9-12.9a9.31,9.31,0,0,0,7.7,4.2v.1l-5.7,21.8,5.7,6.5,5.7-6.5-5.7-21.8v-.1a9.15,9.15,0,0,0,7.7-4.2c6.3.8,16.9,3.4,16.9,12.9v24.6S194,183.2,170.9,183.2Z" transform="translate(-37.4 -28.2)"/><path class="cls-11" d="M37.4,146.7c0-9.5,10.6-12.2,16.9-12.9h0A9.15,9.15,0,0,0,62,138v.1l-5.7,21.8,5.7,6.5,5.7-6.5L62,138.1V138a9.15,9.15,0,0,0,7.7-4.2h0c6.3.8,16.9,3.4,16.9,12.9v24.6S85,184.8,62,184.8s-24.6-13.5-24.6-13.5Z" transform="translate(-37.4 -28.2)"/><path class="cls-12" d="M49,119.5a13,13,0,1,1,13,13A13,13,0,0,1,49,119.5Z" transform="translate(-37.4 -28.2)"/></g></svg>