<svg id="Layer_1" data-name="Layer 1" xmlns="http://www.w3.org/2000/svg" xmlns:xlink="http://www.w3.org/1999/xlink" viewBox="0 0 152.2 129"><defs><style>.cls-1{fill:url(#linear-gradient);}</style><linearGradient id="linear-gradient" x1="116" y1="218" x2="116" y2="56" gradientTransform="matrix(1, 0, 0, -1, 0, 234)" gradientUnits="userSpaceOnUse"><stop offset="0" stop-color="#2693b1"/><stop offset="0.05" stop-color="#2196b2"/><stop offset="0.33" stop-color="#0aa7b7"/><stop offset="0.51" stop-color="#02adb9"/><stop offset="0.64" stop-color="#02abb6"/><stop offset="0.72" stop-color="#02a3ae"/><stop offset="0.79" stop-color="#0295a0"/><stop offset="0.85" stop-color="#01828b"/><stop offset="0.9" stop-color="#016971"/><stop offset="0.95" stop-color="#014a51"/><stop offset="1" stop-color="#00272b"/><stop offset="1" stop-color="#00262a"/></linearGradient></defs><g id="Layer_3" data-name="Layer 3"><path class="cls-1" d="M183.6,97l-9.3-32.9c0-7.8-10.1-12.6-17.9-12.6H75.6c-7.8,0-17.9,4.8-17.9,12.6L48.4,97c-6.8,0-8.5,6.8-8.5,13.4v42.7c0,6.4,5.1,7.5,11.5,7.6v17a2.8,2.8,0,0,0,2.8,2.8H66.5a2.8,2.8,0,0,0,2.8-2.8V160.8h93.4v16.9a2.8,2.8,0,0,0,2.8,2.8h12.3a2.8,2.8,0,0,0,2.8-2.8v-17c6.4-.1,11.5-1.2,11.5-7.6V110.4C192.1,103.8,190.4,97,183.6,97ZM75,137.4a2.8,2.8,0,0,1-2.8,2.8H54.3a2.8,2.8,0,0,1-2.8-2.8v-9a2.8,2.8,0,0,1,2.8-2.8H72.1a2.8,2.8,0,0,1,2.8,2.8v9Zm-12.7-40A3.13,3.13,0,0,1,59,94.6l8-30.2a2.8,2.8,0,0,1,2.8-2.8h92.4a2.8,2.8,0,0,1,2.8,2.8l8,30.2a3.06,3.06,0,0,1-3.3,2.8Zm118.2,40a2.8,2.8,0,0,1-2.8,2.8H159.9a2.8,2.8,0,0,1-2.8-2.8v-9a2.8,2.8,0,0,1,2.8-2.8h17.8a2.8,2.8,0,0,1,2.8,2.8Z" transform="translate(-39.9 -51.5)"/></g></svg>