<svg id="Layer_1" data-name="Layer 1" xmlns="http://www.w3.org/2000/svg" viewBox="0 0 232 232"><defs><style>.cls-1{fill:#0aa7b7;}</style></defs><g id="Layer_3" data-name="Layer 3"><path class="cls-1" d="M183.6,97l-9.3-32.9c0-7.8-10.1-12.6-17.9-12.6H75.6c-7.8,0-17.9,4.8-17.9,12.6L48.4,97c-6.8,0-8.5,6.8-8.5,13.4v42.7c0,6.4,5.1,7.5,11.5,7.6v17a2.8,2.8,0,0,0,2.8,2.8H66.5a2.8,2.8,0,0,0,2.8-2.8V160.8h93.4v16.9a2.8,2.8,0,0,0,2.8,2.8h12.3a2.8,2.8,0,0,0,2.8-2.8v-17c6.4-.1,11.5-1.2,11.5-7.6V110.4C192.1,103.8,190.4,97,183.6,97ZM75,137.4a2.8,2.8,0,0,1-2.8,2.8H54.3a2.8,2.8,0,0,1-2.8-2.8v-9a2.8,2.8,0,0,1,2.8-2.8H72.1a2.8,2.8,0,0,1,2.8,2.8v9Zm-12.7-40A3.13,3.13,0,0,1,59,94.6l8-30.2a2.8,2.8,0,0,1,2.8-2.8h92.4a2.8,2.8,0,0,1,2.8,2.8l8,30.2a3.06,3.06,0,0,1-3.3,2.8Zm118.2,40a2.8,2.8,0,0,1-2.8,2.8H159.9a2.8,2.8,0,0,1-2.8-2.8v-9a2.8,2.8,0,0,1,2.8-2.8h17.8a2.8,2.8,0,0,1,2.8,2.8Z" transform="translate(0 0.5)"/><path class="cls-1" d="M116-.5a116,116,0,1,0,116,116A116,116,0,0,0,116-.5Zm0,222.3A106.2,106.2,0,0,1,9.8,115.6C9.8,57,57.3,9.2,116,9.2A106.2,106.2,0,0,1,222.2,115.4C222.2,174,174.7,221.8,116,221.8Z" transform="translate(0 0.5)"/></g></svg>